<?xml version="1.0" encoding="utf-8"?>
<!-- Generator: Adobe Illustrator 16.0.4, SVG Export Plug-In . SVG Version: 6.00 Build 0)  -->
<!DOCTYPE svg PUBLIC "-//W3C//DTD SVG 1.1//EN" "http://www.w3.org/Graphics/SVG/1.1/DTD/svg11.dtd">
<svg version="1.1" id="Layer_1" xmlns="http://www.w3.org/2000/svg" xmlns:xlink="http://www.w3.org/1999/xlink" x="0px" y="0px"
	 width="491.491px" height="98.929px" viewBox="3.167 200.536 491.491 98.929"
	 enable-background="new 3.167 200.536 491.491 98.929" xml:space="preserve">
<g>
	<g>
		<g>
			<path fill="#E64B5F" d="M194.337,272.543c0,1.35-0.535,2.639-1.488,3.589l-22.734,22.734c-1.28,1.278-3.466,0.372-3.466-1.437
				v-50.941l27.371-27.216h0.317V272.543z"/>
			<path fill="#EAD19F" d="M176.195,201.13c-0.793-0.792-2.079-0.792-2.872,0l-33.805,33.805h-0.47v38.151l0.47,1.005l27.131-27.133
				l27.688-27.688L176.195,201.13z"/>
			<path fill="#1E788C" d="M84.701,272.543c0,1.35,0.534,2.639,1.486,3.589l22.734,22.734c1.279,1.278,3.466,0.372,3.466-1.437
				v-50.941l-27.372-27.216h-0.314V272.543z"/>
			<path fill="#9ABDA9" d="M105.715,201.13c-0.794-0.792-2.079-0.792-2.872,0l-18.142,18.144l27.686,27.685l27.131,27.133v-39.156
				L105.715,201.13z"/>
		</g>
	</g>
	<g>
		<g>
			<path fill="#14233C" d="M20.453,225.222c0,1.165-0.23,2.251-0.689,3.264c-0.46,1.012-1.074,1.886-1.839,2.62
				c-0.768,0.735-1.687,1.32-2.758,1.747c-1.073,0.43-2.193,0.645-3.356,0.645c-2.452,0-4.507-0.813-6.161-2.437
				c-1.654-1.624-2.483-3.571-2.483-5.839c0-1.104,0.215-2.161,0.644-3.173c0.428-1.012,1.041-1.884,1.839-2.621
				c0.797-0.734,1.716-1.332,2.759-1.792c1.041-0.459,2.175-0.689,3.402-0.689c1.163,0,2.283,0.216,3.356,0.643
				c1.072,0.431,1.991,1.012,2.758,1.748c0.766,0.735,1.379,1.609,1.839,2.619C20.223,222.969,20.453,224.058,20.453,225.222z
				 M4.27,285.629v-45.788h15.079v45.788H4.27z"/>
			<path fill="#14233C" d="M59.711,227.243c-0.55-0.183-1.194-0.335-1.93-0.46c-0.736-0.121-1.472-0.183-2.208-0.183
				c-1.41,0-2.543,0.246-3.401,0.735c-0.859,0.491-1.533,1.149-2.023,1.977c-0.491,0.829-0.827,1.763-1.01,2.806
				c-0.185,1.042-0.277,2.085-0.277,3.125v4.598h10.206v11.216H48.862v34.572H33.784v-34.572h-8.368v-11.216h8.368v-4.413
				c0-2.819,0.306-5.502,0.919-8.045c0.612-2.544,1.669-4.782,3.172-6.714c1.501-1.931,3.524-3.462,6.068-4.597
				c2.542-1.133,5.715-1.701,9.516-1.701c1.287,0,2.56,0.078,3.816,0.23c1.256,0.153,2.405,0.383,3.448,0.689L59.711,227.243z"/>
		</g>
	</g>
	<g>
		<g>
			<path fill="#14233C" d="M236.295,249.446v17.539c0,2.152,0.415,3.768,1.242,4.847c0.827,1.077,2.313,1.614,4.46,1.614
				c0.735,0,1.517-0.062,2.344-0.186c0.829-0.121,1.519-0.306,2.069-0.551l0.184,11.034c-1.042,0.366-2.36,0.688-3.953,0.964
				c-1.596,0.275-3.189,0.415-4.782,0.415c-3.066,0-5.64-0.386-7.724-1.151c-2.084-0.768-3.755-1.875-5.011-3.32
				c-1.256-1.442-2.16-3.164-2.712-5.161c-0.551-1.997-0.827-4.224-0.827-6.683v-19.361h-7.356V238.23h7.263v-12.045h14.802v12.045
				h10.759v11.216H236.295z"/>
			<path fill="#14233C" d="M284.291,284.02v-24.826c0-1.286-0.092-2.512-0.275-3.678c-0.185-1.162-0.537-2.189-1.059-3.08
				c-0.521-0.888-1.21-1.594-2.068-2.113c-0.859-0.521-1.963-0.781-3.31-0.781c-2.638,0-4.659,0.935-6.069,2.805
				c-1.41,1.869-2.113,4.184-2.113,6.94v24.733h-15.08v-69.511h15.08v29.514h0.184c1.042-1.839,2.695-3.477,4.966-4.919
				c2.267-1.439,4.994-2.16,8.183-2.16c3.127,0,5.748,0.551,7.861,1.654c2.115,1.104,3.83,2.528,5.148,4.275
				s2.267,3.755,2.852,6.023c0.581,2.269,0.872,4.536,0.872,6.804v28.317h-15.171V284.02z"/>
			<path fill="#14233C" d="M356.284,261.677c0,0.613,0,1.228,0,1.839c0,0.613-0.033,1.194-0.093,1.748H323
				c0.121,1.285,0.505,2.451,1.149,3.492c0.643,1.044,1.47,1.946,2.48,2.713c1.011,0.768,2.146,1.364,3.402,1.793
				c1.255,0.43,2.559,0.645,3.908,0.645c2.391,0,4.412-0.443,6.067-1.334c1.654-0.887,3.002-2.036,4.046-3.448l10.481,6.621
				c-2.146,3.126-4.981,5.532-8.506,7.218c-3.525,1.686-7.617,2.529-12.275,2.529c-3.432,0-6.682-0.538-9.745-1.609
				c-3.064-1.07-5.746-2.636-8.044-4.689c-2.299-2.053-4.109-4.58-5.427-7.586c-1.318-3.002-1.977-6.437-1.977-10.297
				c0-3.738,0.645-7.125,1.932-10.16c1.287-3.034,3.033-5.609,5.241-7.724c2.207-2.115,4.811-3.755,7.813-4.92
				c3.002-1.164,6.253-1.747,9.746-1.747c3.371,0,6.467,0.567,9.287,1.702c2.817,1.134,5.241,2.774,7.263,4.919
				c2.024,2.146,3.602,4.751,4.735,7.814C355.715,254.261,356.284,257.754,356.284,261.677z M342.399,255.884
				c0-2.39-0.753-4.444-2.253-6.16c-1.504-1.716-3.756-2.575-6.758-2.575c-1.473,0-2.819,0.229-4.046,0.689s-2.299,1.09-3.218,1.886
				c-0.919,0.797-1.656,1.732-2.207,2.803c-0.551,1.074-0.858,2.193-0.919,3.356H342.399z"/>
			<path fill="#14233C" d="M395.728,284.02v-25.008c0-1.289-0.107-2.516-0.32-3.679c-0.216-1.165-0.568-2.192-1.059-3.081
				s-1.181-1.593-2.067-2.115c-0.891-0.52-2.01-0.78-3.357-0.78s-2.528,0.261-3.538,0.78c-1.013,0.522-1.854,1.242-2.527,2.161
				c-0.679,0.919-1.184,1.978-1.521,3.173c-0.336,1.194-0.505,2.437-0.505,3.723v24.826h-15.171v-45.79h14.619v6.345h0.185
				c0.553-0.98,1.271-1.946,2.161-2.896c0.887-0.95,1.929-1.762,3.126-2.437c1.194-0.675,2.496-1.226,3.908-1.656
				c1.407-0.427,2.91-0.643,4.505-0.643c3.062,0,5.669,0.551,7.814,1.654c2.146,1.104,3.876,2.528,5.194,4.275
				c1.317,1.747,2.269,3.755,2.851,6.023s0.874,4.537,0.874,6.804v28.318h-15.172V284.02z"/>
			<path fill="#14233C" d="M439.493,275.93c0,2.572-0.906,4.719-2.712,6.436c-1.81,1.715-3.972,2.574-6.482,2.574
				c-1.287,0-2.5-0.23-3.633-0.689c-1.135-0.46-2.13-1.089-2.988-1.885c-0.858-0.797-1.533-1.732-2.021-2.805
				c-0.492-1.072-0.736-2.252-0.736-3.541c0-1.226,0.244-2.391,0.736-3.492c0.487-1.104,1.162-2.069,2.021-2.896
				c0.858-0.826,1.854-1.486,2.988-1.977c1.133-0.49,2.346-0.736,3.633-0.736c2.512,0,4.674,0.859,6.482,2.575
				C438.587,271.208,439.493,273.354,439.493,275.93z"/>
			<path fill="#14233C" d="M467.076,275.93c0,2.572-0.906,4.719-2.714,6.436c-1.809,1.715-3.97,2.574-6.48,2.574
				c-1.287,0-2.5-0.23-3.633-0.689c-1.135-0.46-2.13-1.089-2.988-1.885c-0.859-0.797-1.533-1.732-2.021-2.805
				c-0.492-1.072-0.737-2.252-0.737-3.541c0-1.226,0.245-2.391,0.737-3.492c0.487-1.104,1.161-2.069,2.021-2.896
				c0.858-0.826,1.854-1.486,2.988-1.977c1.133-0.49,2.346-0.736,3.633-0.736c2.512,0,4.673,0.859,6.48,2.575
				C466.169,271.209,467.076,273.354,467.076,275.93z"/>
			<path fill="#14233C" d="M494.658,275.93c0,2.572-0.906,4.719-2.713,6.436c-1.81,1.715-3.97,2.574-6.481,2.574
				c-1.287,0-2.499-0.23-3.633-0.689c-1.135-0.46-2.131-1.089-2.987-1.885c-0.859-0.797-1.534-1.732-2.022-2.805
				c-0.491-1.072-0.736-2.252-0.736-3.541c0-1.226,0.245-2.391,0.736-3.492c0.488-1.104,1.163-2.069,2.022-2.896
				c0.856-0.826,1.854-1.486,2.987-1.977s2.346-0.736,3.633-0.736c2.513,0,4.673,0.859,6.481,2.575
				C493.752,271.208,494.658,273.354,494.658,275.93z"/>
		</g>
	</g>
</g>
</svg>
